<svg width="232" height="157" viewBox="0 0 232 157" fill="none" xmlns="http://www.w3.org/2000/svg">
<path d="M16.3717 134.827C17.7483 135.084 18.88 135.772 19.7667 136.892C20.6533 138.012 21.0967 139.296 21.0967 140.742C21.0967 142.049 20.77 143.204 20.1167 144.207C19.4867 145.187 18.565 145.957 17.3517 146.517C16.1383 147.077 14.7033 147.357 13.0467 147.357H2.51168V122.927H12.5917C14.2483 122.927 15.6717 123.196 16.8617 123.732C18.075 124.269 18.985 125.016 19.5917 125.972C20.2217 126.929 20.5367 128.014 20.5367 129.227C20.5367 130.651 20.1517 131.841 19.3817 132.797C18.635 133.754 17.6317 134.431 16.3717 134.827ZM7.41168 133.007H11.8917C13.0583 133.007 13.9567 132.751 14.5867 132.237C15.2167 131.701 15.5317 130.942 15.5317 129.962C15.5317 128.982 15.2167 128.224 14.5867 127.687C13.9567 127.151 13.0583 126.882 11.8917 126.882H7.41168V133.007ZM12.3467 143.367C13.5367 143.367 14.4583 143.087 15.1117 142.527C15.7883 141.967 16.1267 141.174 16.1267 140.147C16.1267 139.097 15.7767 138.281 15.0767 137.697C14.3767 137.091 13.4317 136.787 12.2417 136.787H7.41168V143.367H12.3467ZM43.0269 137.242C43.0269 137.942 42.9802 138.572 42.8869 139.132H28.7119C28.8286 140.532 29.3186 141.629 30.1819 142.422C31.0452 143.216 32.1069 143.612 33.3669 143.612C35.1869 143.612 36.4819 142.831 37.2519 141.267H42.5369C41.9769 143.134 40.9036 144.674 39.3169 145.887C37.7302 147.077 35.7819 147.672 33.4719 147.672C31.6052 147.672 29.9252 147.264 28.4319 146.447C26.9619 145.607 25.8069 144.429 24.9669 142.912C24.1502 141.396 23.7419 139.646 23.7419 137.662C23.7419 135.656 24.1502 133.894 24.9669 132.377C25.7836 130.861 26.9269 129.694 28.3969 128.877C29.8669 128.061 31.5586 127.652 33.4719 127.652C35.3152 127.652 36.9602 128.049 38.4069 128.842C39.8769 129.636 41.0086 130.767 41.8019 132.237C42.6186 133.684 43.0269 135.352 43.0269 137.242ZM37.9519 135.842C37.9286 134.582 37.4736 133.579 36.5869 132.832C35.7002 132.062 34.6152 131.677 33.3319 131.677C32.1186 131.677 31.0919 132.051 30.2519 132.797C29.4352 133.521 28.9336 134.536 28.7469 135.842H37.9519ZM51.5035 130.977C52.1335 129.951 52.9501 129.146 53.9535 128.562C54.9801 127.979 56.1468 127.687 57.4535 127.687V132.832H56.1585C54.6185 132.832 53.4518 133.194 52.6585 133.917C51.8885 134.641 51.5035 135.901 51.5035 137.697V147.357H46.6035V127.967H51.5035V130.977ZM68.1739 147.672C66.5872 147.672 65.1639 147.392 63.9039 146.832C62.6439 146.249 61.6405 145.467 60.8939 144.487C60.1705 143.507 59.7739 142.422 59.7039 141.232H64.6389C64.7322 141.979 65.0939 142.597 65.7239 143.087C66.3772 143.577 67.1822 143.822 68.1389 143.822C69.0722 143.822 69.7955 143.636 70.3089 143.262C70.8455 142.889 71.1139 142.411 71.1139 141.827C71.1139 141.197 70.7872 140.731 70.1339 140.427C69.5039 140.101 68.4889 139.751 67.0889 139.377C65.6422 139.027 64.4522 138.666 63.5189 138.292C62.6089 137.919 61.8155 137.347 61.1389 136.577C60.4855 135.807 60.1589 134.769 60.1589 133.462C60.1589 132.389 60.4622 131.409 61.0689 130.522C61.6989 129.636 62.5855 128.936 63.7289 128.422C64.8955 127.909 66.2605 127.652 67.8239 127.652C70.1339 127.652 71.9772 128.236 73.3539 129.402C74.7305 130.546 75.4889 132.097 75.6289 134.057H70.9389C70.8689 133.287 70.5422 132.681 69.9589 132.237C69.3989 131.771 68.6405 131.537 67.6839 131.537C66.7972 131.537 66.1089 131.701 65.6189 132.027C65.1522 132.354 64.9189 132.809 64.9189 133.392C64.9189 134.046 65.2455 134.547 65.8989 134.897C66.5522 135.224 67.5672 135.562 68.9439 135.912C70.3439 136.262 71.4989 136.624 72.4089 136.997C73.3189 137.371 74.1005 137.954 74.7539 138.747C75.4305 139.517 75.7805 140.544 75.8039 141.827C75.8039 142.947 75.4889 143.951 74.8589 144.837C74.2522 145.724 73.3655 146.424 72.1989 146.937C71.0555 147.427 69.7139 147.672 68.1739 147.672ZM82.3111 125.657C81.4478 125.657 80.7245 125.389 80.1411 124.852C79.5811 124.292 79.3011 123.604 79.3011 122.787C79.3011 121.971 79.5811 121.294 80.1411 120.757C80.7245 120.197 81.4478 119.917 82.3111 119.917C83.1745 119.917 83.8861 120.197 84.4461 120.757C85.0295 121.294 85.3211 121.971 85.3211 122.787C85.3211 123.604 85.0295 124.292 84.4461 124.852C83.8861 125.389 83.1745 125.657 82.3111 125.657ZM84.7261 127.967V147.357H79.8261V127.967H84.7261ZM100.487 127.687C101.957 127.687 103.264 128.014 104.407 128.667C105.551 129.297 106.437 130.242 107.067 131.502C107.721 132.739 108.047 134.232 108.047 135.982V147.357H103.147V136.647C103.147 135.107 102.762 133.929 101.992 133.112C101.222 132.272 100.172 131.852 98.8423 131.852C97.489 131.852 96.4157 132.272 95.6223 133.112C94.8523 133.929 94.4673 135.107 94.4673 136.647V147.357H89.5673V121.457H94.4673V130.382C95.0973 129.542 95.9373 128.889 96.9873 128.422C98.0373 127.932 99.204 127.687 100.487 127.687ZM127.337 147.357L122.052 139.132L117.257 147.357H111.727L119.427 135.037L111.622 122.927H117.257L122.542 131.117L127.302 122.927H132.832L125.167 135.212L132.972 147.357H127.337ZM141.601 130.767C142.231 129.881 143.094 129.146 144.191 128.562C145.311 127.956 146.583 127.652 148.006 127.652C149.663 127.652 151.156 128.061 152.486 128.877C153.839 129.694 154.901 130.861 155.671 132.377C156.464 133.871 156.861 135.609 156.861 137.592C156.861 139.576 156.464 141.337 155.671 142.877C154.901 144.394 153.839 145.572 152.486 146.412C151.156 147.252 149.663 147.672 148.006 147.672C146.583 147.672 145.323 147.381 144.226 146.797C143.153 146.214 142.278 145.479 141.601 144.592V156.597H136.701V127.967H141.601V130.767ZM151.856 137.592C151.856 136.426 151.611 135.422 151.121 134.582C150.654 133.719 150.024 133.066 149.231 132.622C148.461 132.179 147.621 131.957 146.711 131.957C145.824 131.957 144.984 132.191 144.191 132.657C143.421 133.101 142.791 133.754 142.301 134.617C141.834 135.481 141.601 136.496 141.601 137.662C141.601 138.829 141.834 139.844 142.301 140.707C142.791 141.571 143.421 142.236 144.191 142.702C144.984 143.146 145.824 143.367 146.711 143.367C147.621 143.367 148.461 143.134 149.231 142.667C150.024 142.201 150.654 141.536 151.121 140.672C151.611 139.809 151.856 138.782 151.856 137.592ZM165.322 130.977C165.952 129.951 166.769 129.146 167.772 128.562C168.799 127.979 169.965 127.687 171.272 127.687V132.832H169.977C168.437 132.832 167.27 133.194 166.477 133.917C165.707 134.641 165.322 135.901 165.322 137.697V147.357H160.422V127.967H165.322V130.977ZM192.597 137.242C192.597 137.942 192.551 138.572 192.457 139.132H178.282C178.399 140.532 178.889 141.629 179.752 142.422C180.616 143.216 181.677 143.612 182.937 143.612C184.757 143.612 186.052 142.831 186.822 141.267H192.107C191.547 143.134 190.474 144.674 188.887 145.887C187.301 147.077 185.352 147.672 183.042 147.672C181.176 147.672 179.496 147.264 178.002 146.447C176.532 145.607 175.377 144.429 174.537 142.912C173.721 141.396 173.312 139.646 173.312 137.662C173.312 135.656 173.721 133.894 174.537 132.377C175.354 130.861 176.497 129.694 177.967 128.877C179.437 128.061 181.129 127.652 183.042 127.652C184.886 127.652 186.531 128.049 187.977 128.842C189.447 129.636 190.579 130.767 191.372 132.237C192.189 133.684 192.597 135.352 192.597 137.242ZM187.522 135.842C187.499 134.582 187.044 133.579 186.157 132.832C185.271 132.062 184.186 131.677 182.902 131.677C181.689 131.677 180.662 132.051 179.822 132.797C179.006 133.521 178.504 134.536 178.317 135.842H187.522ZM203.594 147.672C202.007 147.672 200.584 147.392 199.324 146.832C198.064 146.249 197.06 145.467 196.314 144.487C195.59 143.507 195.194 142.422 195.124 141.232H200.059C200.152 141.979 200.514 142.597 201.144 143.087C201.797 143.577 202.602 143.822 203.559 143.822C204.492 143.822 205.215 143.636 205.729 143.262C206.265 142.889 206.534 142.411 206.534 141.827C206.534 141.197 206.207 140.731 205.554 140.427C204.924 140.101 203.909 139.751 202.509 139.377C201.062 139.027 199.872 138.666 198.939 138.292C198.029 137.919 197.235 137.347 196.559 136.577C195.905 135.807 195.579 134.769 195.579 133.462C195.579 132.389 195.882 131.409 196.489 130.522C197.119 129.636 198.005 128.936 199.149 128.422C200.315 127.909 201.68 127.652 203.244 127.652C205.554 127.652 207.397 128.236 208.774 129.402C210.15 130.546 210.909 132.097 211.049 134.057H206.359C206.289 133.287 205.962 132.681 205.379 132.237C204.819 131.771 204.06 131.537 203.104 131.537C202.217 131.537 201.529 131.701 201.039 132.027C200.572 132.354 200.339 132.809 200.339 133.392C200.339 134.046 200.665 134.547 201.319 134.897C201.972 135.224 202.987 135.562 204.364 135.912C205.764 136.262 206.919 136.624 207.829 136.997C208.739 137.371 209.52 137.954 210.174 138.747C210.85 139.517 211.2 140.544 211.224 141.827C211.224 142.947 210.909 143.951 210.279 144.837C209.672 145.724 208.785 146.424 207.619 146.937C206.475 147.427 205.134 147.672 203.594 147.672ZM222.666 147.672C221.079 147.672 219.656 147.392 218.396 146.832C217.136 146.249 216.133 145.467 215.386 144.487C214.663 143.507 214.266 142.422 214.196 141.232H219.131C219.224 141.979 219.586 142.597 220.216 143.087C220.869 143.577 221.674 143.822 222.631 143.822C223.564 143.822 224.288 143.636 224.801 143.262C225.338 142.889 225.606 142.411 225.606 141.827C225.606 141.197 225.279 140.731 224.626 140.427C223.996 140.101 222.981 139.751 221.581 139.377C220.134 139.027 218.944 138.666 218.011 138.292C217.101 137.919 216.308 137.347 215.631 136.577C214.978 135.807 214.651 134.769 214.651 133.462C214.651 132.389 214.954 131.409 215.561 130.522C216.191 129.636 217.078 128.936 218.221 128.422C219.388 127.909 220.753 127.652 222.316 127.652C224.626 127.652 226.469 128.236 227.846 129.402C229.223 130.546 229.981 132.097 230.121 134.057H225.431C225.361 133.287 225.034 132.681 224.451 132.237C223.891 131.771 223.133 131.537 222.176 131.537C221.289 131.537 220.601 131.701 220.111 132.027C219.644 132.354 219.411 132.809 219.411 133.392C219.411 134.046 219.738 134.547 220.391 134.897C221.044 135.224 222.059 135.562 223.436 135.912C224.836 136.262 225.991 136.624 226.901 136.997C227.811 137.371 228.593 137.954 229.246 138.747C229.923 139.517 230.273 140.544 230.296 141.827C230.296 142.947 229.981 143.951 229.351 144.837C228.744 145.724 227.858 146.424 226.691 146.937C225.548 147.427 224.206 147.672 222.666 147.672Z" fill="white"/>
<path d="M80.3395 66.0746C76.1712 72.424 73.6305 79.2931 71.848 86.4675C71.5347 65.0495 82.1315 49.359 98.3294 36.4801C95.4906 32.524 92.7608 28.607 89.9124 24.7783C86.2219 19.8177 82.5248 14.8571 78.6663 10.0278C75.2163 5.70994 70.9871 2.30472 65.7567 0.00178489C66.2996 0.00178489 66.8426 -0.00263926 67.3854 0.00244302C76.0343 0.0833317 84.6831 0.223452 93.332 0.227876C99.6198 0.231106 104.496 2.80312 108.093 7.88683C111.704 12.9901 115.281 18.117 118.878 23.2308C119.027 23.4436 119.216 23.6288 119.441 23.8907C123.347 22.1868 127.241 20.5269 131.089 18.7653C131.623 18.5207 131.962 17.7977 132.332 17.2558C134.621 13.906 136.784 10.4637 139.197 7.20668C142.523 2.7182 147.045 0.297881 152.694 0.273153C161.471 0.234738 170.248 0.263013 179.358 0.263013C177.621 1.24232 176.008 1.87862 174.737 2.92843C172.498 4.77694 170.341 6.76378 168.403 8.91981C167.376 10.0616 166.439 10.4817 164.991 10.2435C162.633 9.85551 160.258 9.56546 157.888 9.25121C157.201 9.16005 156.505 9.12741 155.381 9.03073C157.175 11.4486 158.705 13.5095 160.403 15.797C157.565 16.662 154.91 17.4236 152.285 18.2793C133.653 24.3531 115.858 32.1274 100.296 44.311C92.4908 50.421 85.6774 57.4841 80.3395 66.0746Z" fill="white"/>
<path d="M83.3133 67.4368C91.7429 54.4584 103.249 45.0682 116.314 37.4018C131.512 28.4842 147.965 22.6811 164.825 17.8933C165.015 17.8395 165.2 17.768 165.668 17.6096C164.713 16.1466 163.802 14.7512 162.653 12.9902C169.14 14.0821 175.201 15.102 181.707 16.197C177.618 21.4705 173.791 26.4057 169.726 31.6479C169.372 29.4377 169.086 27.6501 168.745 25.5283C164.643 27.0142 160.765 28.3518 156.935 29.8171C140.085 36.2648 124.143 44.41 109.698 55.3127C98.7776 63.5551 89.1245 73.0003 82.026 84.8258C78.487 90.7214 75.5861 96.9008 73.945 103.618C73.9048 103.783 73.7365 103.917 73.4139 104.357C73.3007 90.9503 76.1178 78.6861 83.3133 67.4368Z" fill="white"/>
<path d="M133.591 59.2386C130.16 60.5405 127.688 59.4344 125.477 55.5992C122.347 55.3619 119.66 56.0045 117.605 58.7402C116.47 60.2511 114.818 61.3736 113.252 62.805C114.951 64.7902 116.398 66.481 117.934 68.2758C119.115 67.4103 120.153 66.6502 121.476 65.6804C121.476 68.2236 121.515 70.4587 121.445 72.6904C121.43 73.1653 121.078 73.6688 120.783 74.0897C117 79.4782 113.151 84.8207 109.416 90.2421C105.394 96.0801 99.8604 99.2139 92.8326 99.503C88.0666 99.699 83.286 99.5404 78.3228 99.5404C80.5395 93.842 83.1766 88.5285 86.5334 83.5711C94.7561 71.428 105.49 61.8999 117.504 53.6823C126.86 47.2822 136.769 41.9023 147.172 37.4171C147.458 37.2936 147.754 37.1915 148.527 36.8945C145.48 41.3213 142.716 45.3386 139.803 49.5522C137.634 52.9118 135.612 56.0752 133.591 59.2386Z" fill="white"/>
<path d="M133.737 59.1976C135.613 56.0751 137.634 52.9118 139.78 49.6816C143.46 53.728 147.023 57.834 150.556 61.9665C150.866 62.3287 151.273 63.0848 151.127 63.2838C150.034 64.7681 151.055 65.7722 151.808 66.8272C156.791 73.8046 161.697 80.8399 166.808 87.7226C171.181 93.6112 175.95 99.1427 183.082 102.119C182.535 102.147 181.987 102.2 181.439 102.199C173.327 102.189 165.214 102.112 157.103 102.179C151.499 102.225 146.727 100.253 143.118 96.1002C139.958 92.4638 137.277 88.4114 134.11 84.1768C136.772 84.0565 138.917 83.9596 141.235 83.8549C141.235 77.8424 141.235 71.9611 141.235 65.6316C142.51 66.6404 143.463 67.3941 144.597 68.2919C145.924 66.7987 147.273 65.3709 148.483 63.8345C148.697 63.5638 148.511 62.6729 148.208 62.3521C146.614 60.6605 145.11 58.7772 143.208 57.514C141.584 56.4355 139.477 56.052 137.544 55.5018C137.253 55.4187 136.701 56.0622 136.342 56.4387C135.498 57.3224 134.699 58.2481 133.737 59.1976Z" fill="white"/>
<path d="M69.0241 16.8116C73.7402 13.1768 79.3517 14.5899 80.8435 19.6591C81.7108 22.6065 80.4392 26.0083 77.8575 27.6474C75.3161 29.2608 71.7455 28.9974 69.5233 27.0325C67.0541 24.8493 66.3474 21.4366 67.8075 18.548C68.1023 17.9649 68.5458 17.457 69.0241 16.8116ZM69.3478 19.4831C68.4624 21.7385 68.7352 23.8406 70.4619 25.5555C71.9262 27.0096 73.7632 27.5242 75.7822 26.8079C78.261 25.9285 79.4912 23.9595 79.3542 21.2259C79.2392 18.9311 77.7848 17.1284 75.4974 16.4454C73.1827 15.7543 71.2034 16.6604 69.3478 19.4831Z" fill="white"/>
<path d="M57.2766 8.94945C59.8583 7.93657 62.1017 8.36738 63.5759 10.0567C64.9539 11.6357 65.2806 13.998 64.3748 15.8318C63.4777 17.648 61.2434 18.8355 59.0673 18.6527C57.074 18.4852 55.3476 16.9579 54.7262 14.8123C54.0952 12.6334 54.9142 10.6731 57.2766 8.94945ZM63.5756 13.6284C63.5063 13.2377 63.4696 12.8377 63.3622 12.4578C62.8396 10.6099 60.7046 9.23701 58.9228 9.5849C57.0387 9.95272 55.8425 11.6601 56.0257 13.7198C56.2058 15.7445 57.6873 17.2987 59.5607 17.4284C61.3831 17.5545 62.8142 16.2874 63.5756 13.6284Z" fill="white"/>
<path d="M87.7017 33.1454C86.4309 35.6737 84.6762 36.4546 82.7042 35.4912C80.9279 34.6234 80.1451 32.5329 81.0123 30.7594C81.8107 29.1266 83.1961 28.468 84.9691 28.7838C86.8048 29.1108 87.7143 30.5541 87.7017 33.1454ZM86.763 32.1003C86.1096 31.3606 85.3633 29.9503 84.8228 30.0252C83.7929 30.1678 82.7555 31.0406 81.9848 31.8586C81.7021 32.1587 81.9398 33.4011 82.3457 33.7868C82.8878 34.3018 84.0224 34.8269 84.5482 34.5831C85.4331 34.173 86.0392 33.1611 86.763 32.1003Z" fill="white"/>
<path d="M49.476 4.11775C48.5984 2.49112 48.9413 1.23766 50.4473 0.520475C51.7125 -0.081993 52.9533 0.392262 53.3589 1.68632C53.6031 2.46557 53.3928 3.71416 52.8806 4.33288C51.928 5.48375 50.6545 5.22388 49.476 4.11775ZM50.7407 1.44619C50.5466 2.1577 50.3525 2.86921 50.1584 3.58073C50.7431 3.7244 51.529 4.16689 51.8648 3.94081C52.3532 3.61202 52.8908 2.64808 52.7219 2.23617C52.5241 1.75392 51.5904 1.5735 50.7407 1.44619Z" fill="white"/>
<path d="M72.4066 18.9465C71.6817 19.6924 71.0682 20.3444 70.3691 21.0875C70.0827 18.7009 71.576 17.3442 74.5105 17.5716C73.6434 18.129 73.0808 18.4908 72.4066 18.9465Z" fill="white"/>
</svg>
